<svg width="235" height="221" viewBox="0 0 235 221" fill="none" xmlns="http://www.w3.org/2000/svg">
<path d="M29.6405 62.7633C34.1929 59.945 40.0848 57.4306 45.4027 57.2106C51.5766 56.9553 57.8423 59.1286 63.8084 60.8655C65.4132 61.3327 67.0815 61.6985 68.6885 62.0994C70.308 62.5035 71.8883 62.9479 73.3818 63.582C74.529 64.0693 75.5568 64.7468 76.6061 65.4704C77.6441 66.1862 78.7124 66.9547 79.8923 67.5642C82.9663 69.1529 86.866 70.4932 90.3198 71.2335L91.0043 71.374C99.7337 73.0671 108.566 72.1848 117.335 70.7991C126.131 69.4091 134.829 67.5211 143.421 67.1433C154.02 66.6765 166.438 67.6175 176.227 71.6293C185.217 75.315 193.498 81.7084 200.491 88.3791C202.338 90.1403 204.408 91.8284 206.437 93.5342C208.473 95.2465 210.474 96.9825 212.222 98.8638C215.71 102.618 218.156 106.913 217.812 112.669C217.596 116.29 215.941 118.214 213.552 120.537L212.484 121.563C208.96 124.941 204.69 127.169 200.153 129.035C197.885 129.969 195.559 130.809 193.229 131.658C190.903 132.507 188.574 133.365 186.317 134.331C184.974 134.907 183.593 135.209 182.159 135.522C180.738 135.831 179.264 136.151 177.82 136.77C167.053 141.381 157.275 147.836 147.935 154.768C146.759 155.641 145.519 156.411 144.265 157.235C143.019 158.052 141.773 158.915 140.638 159.948C134.955 165.122 129.088 170.879 124.322 176.96C120.166 182.262 116.708 187.683 112.014 192.436C105.823 198.704 98.602 203.739 90.9413 208.095C86.2582 210.758 80.4175 211.965 75.1655 210.955C71.2862 210.21 67.1355 209.416 63.7254 207.62C57.414 204.294 52.0963 196.63 52.0066 189.2C51.9641 185.662 52.7104 181.848 53.7262 178.034C54.747 174.202 56.0115 170.466 57.0179 166.97C57.7557 164.409 58.8016 161.366 59.3435 158.324C59.8868 155.273 59.9444 152.127 58.6498 149.327C58.14 148.224 57.3757 147.33 56.5968 146.514C55.8005 145.679 55.018 144.952 54.354 144.108C51.5241 140.511 48.3301 137.469 45.0417 134.563C41.7413 131.647 38.3741 128.889 35.1286 125.815C26.9636 118.08 23.3488 109.625 20.8883 98.7984C19.7032 93.5826 18.756 89.1434 19.2319 83.8487L19.2332 83.8492C19.928 76.1239 22.8431 66.9722 29.6405 62.7633Z" stroke="#2B84F7"/>
<path d="M80.9218 90.2896C86.1544 86.7538 92.9662 85.7372 98.3822 89.2315L98.9024 89.5842C102.729 92.3042 104.822 96.8824 104.979 101.463C105.136 106.042 103.358 110.549 99.5338 113.165C94.55 116.575 88.091 118.646 82.5328 115.832C77.7367 113.404 75.1224 108.519 74.822 103.463C74.5216 98.4052 76.5412 93.2499 80.9218 90.2896Z" stroke="#2B84F7"/>
</svg>
